<?xml version="1.0" standalone="no"?><!DOCTYPE svg PUBLIC "-//W3C//DTD SVG 1.1//EN" "http://www.w3.org/Graphics/SVG/1.1/DTD/svg11.dtd"><svg class="icon" width="200px" height="200.00px" viewBox="0 0 1024 1024" version="1.1" xmlns="http://www.w3.org/2000/svg"><path fill="#707070" d="M516.9 960.1c-27.1 0-49.2-22.1-49.2-49.2V768c0-4.8 3.9-8.7 8.7-8.7s8.7 3.9 8.7 8.7v142.9c0 17.6 14.3 31.8 31.8 31.8 17.6 0 31.8-14.3 31.8-31.8V802.8c0-4.8 3.9-8.7 8.7-8.7 4.8 0 8.7 3.9 8.7 8.7v108.1c0 27.1-22.1 49.2-49.2 49.2z"  /><path fill="#707070" d="M615.3 771.9H418.5c-59.1 0-107.2-48.1-107.2-107.2v-194c0-4.8 3.9-8.7 8.7-8.7s8.7 3.9 8.7 8.7v194c0 49.5 40.3 89.8 89.8 89.8h196.8c49.5 0 89.8-40.3 89.8-89.8V281.9c-44.5-1.6-83.6-31.9-96.5-74.3-4.2 0.5-8.3 0.8-12.5 0.8-52.9 0-96.9-39.3-103.7-90.9h-73.9c-49.5 0-89.8 40.3-89.8 89.8 0 4.8-3.9 8.7-8.7 8.7s-8.7-3.9-8.7-8.7c0-59.1 48.1-107.2 107.2-107.2h81.8c4.6 0 8.4 3.6 8.7 8.2 2.5 46.4 40.7 82.7 87.1 82.7 5.7 0 11.5-0.6 17.2-1.7 4.7-1 9.2 2 10.2 6.7 8.7 39.8 44.6 68.6 85.3 68.6 1 0 1.9-0.1 2.8-0.1l1.7-0.1c2.4-0.1 4.7 0.7 6.4 2.4 1.7 1.6 2.7 3.9 2.7 6.3v391.7c0.1 59-48 107.1-107.1 107.1z"  /><path fill="#707070" d="M320 420.1c-4.8 0-8.7-3.9-8.7-8.7V260.8c0-4.8 3.9-8.7 8.7-8.7s8.7 3.9 8.7 8.7v150.6c0 4.8-3.9 8.7-8.7 8.7zM450.3 624.2c-4.8 0-8.7-3.9-8.7-8.7v-181c0-4.8 3.9-8.7 8.7-8.7 4.8 0 8.7 3.9 8.7 8.7v181c0 4.8-3.9 8.7-8.7 8.7zM450.3 395.5c-4.8 0-8.7-3.9-8.7-8.7v-55c0-4.8 3.9-8.7 8.7-8.7 4.8 0 8.7 3.9 8.7 8.7v55c0 4.8-3.9 8.7-8.7 8.7zM580.6 592.4c-4.8 0-8.7-3.9-8.7-8.7V460.6c0-4.8 3.9-8.7 8.7-8.7 4.8 0 8.7 3.9 8.7 8.7v123.1c0 4.8-3.9 8.7-8.7 8.7zM580.6 417.2c-4.8 0-8.7-3.9-8.7-8.7v-76.7c0-4.8 3.9-8.7 8.7-8.7 4.8 0 8.7 3.9 8.7 8.7v76.7c0 4.8-3.9 8.7-8.7 8.7zM239.1 675.3c-1.1 0-2.2-0.4-3.1-1.3l-38.4-38.4c-1.7-1.7-1.7-4.4 0-6.1 1.7-1.7 4.4-1.7 6.1 0l38.4 38.4c1.7 1.7 1.7 4.4 0 6.1-0.8 0.8-1.9 1.3-3 1.3z"  /><path fill="#707070" d="M200.7 675.3c-1.1 0-2.2-0.4-3.1-1.3-1.7-1.7-1.7-4.4 0-6.1l38.4-38.4c1.7-1.7 4.4-1.7 6.1 0 1.7 1.7 1.7 4.4 0 6.1L203.8 674c-0.8 0.8-1.9 1.3-3.1 1.3zM572.9 103.5c-1.1 0-2.2-0.4-3.1-1.3l-30.9-30.9c-1.7-1.7-1.7-4.4 0-6.1 1.7-1.7 4.4-1.7 6.1 0L576 96c1.7 1.7 1.7 4.4 0 6.1-0.9 0.9-2 1.4-3.1 1.4z"  /><path fill="#707070" d="M542 103.5c-1.1 0-2.2-0.4-3.1-1.3-1.7-1.7-1.7-4.4 0-6.1l30.9-30.9c1.7-1.7 4.4-1.7 6.1 0 1.7 1.7 1.7 4.4 0 6.1L545 102.2c-0.8 0.8-1.9 1.3-3 1.3zM788.5 311c-1.1 0-2.2-0.4-3.1-1.3l-38-38c-1.7-1.7-1.7-4.4 0-6.1 1.7-1.7 4.4-1.7 6.1 0l38 38c1.7 1.7 1.7 4.4 0 6.1-0.8 0.9-1.9 1.3-3 1.3z"  /><path fill="#707070" d="M750.5 311c-1.1 0-2.2-0.4-3.1-1.3-1.7-1.7-1.7-4.4 0-6.1l38-38c1.7-1.7 4.4-1.7 6.1 0s1.7 4.4 0 6.1l-38 38c-0.8 0.9-1.9 1.3-3 1.3z"  /><path fill="#707070" d="M809.5 443.2c-10 0-18.1-8.1-18.1-18.1 0-10 8.1-18.1 18.1-18.1s18.1 8.1 18.1 18.1c0 10-8.1 18.1-18.1 18.1z m0-27.5c-5.2 0-9.4 4.2-9.4 9.4s4.2 9.4 9.4 9.4 9.4-4.2 9.4-9.4-4.2-9.4-9.4-9.4z"  /><path fill="#707070" d="M230.7 197.4c-15.6 0-28.2-12.7-28.2-28.2 0-15.6 12.7-28.2 28.2-28.2 15.6 0 28.2 12.7 28.2 28.2s-12.7 28.2-28.2 28.2z m0-47.8c-10.8 0-19.5 8.8-19.5 19.5s8.8 19.5 19.5 19.5 19.5-8.8 19.5-19.5-8.7-19.5-19.5-19.5z"  /><path fill="#707070" d="M706.3 836.9c-13.4 0-24.4-10.9-24.4-24.4 0-13.4 10.9-24.4 24.4-24.4s24.4 10.9 24.4 24.4c0 13.5-10.9 24.4-24.4 24.4z m0-40.1c-8.6 0-15.7 7-15.7 15.7s7 15.7 15.7 15.7 15.7-7 15.7-15.7-7-15.7-15.7-15.7z"  /></svg>