<?xml version="1.0" standalone="no"?><!DOCTYPE svg PUBLIC "-//W3C//DTD SVG 1.1//EN" "http://www.w3.org/Graphics/SVG/1.1/DTD/svg11.dtd"><svg class="icon" width="200px" height="200.00px" viewBox="0 0 1024 1024" version="1.1" xmlns="http://www.w3.org/2000/svg"><path fill="#707070" d="M593.6 302c-17.5 0-33.9-5.6-47.7-16.3-10.9-8.5-26.6-6.5-35.1 4.4s-6.5 26.6 4.4 35.1c22.6 17.5 49.7 26.8 78.4 26.8 70.5 0 127.9-57.4 127.9-127.9S664.1 96.3 593.6 96.3c-13.8 0-25 11.2-25 25s11.2 25 25 25c42.9 0 77.9 34.9 77.9 77.9S636.6 302 593.6 302zM353.6 525m-48.7 0a48.7 48.7 0 1 0 97.4 0 48.7 48.7 0 1 0-97.4 0ZM643.1 525m-48.7 0a48.7 48.7 0 1 0 97.4 0 48.7 48.7 0 1 0-97.4 0ZM299.7 658.4c29.8 80.7 111.7 135 203.8 135 46.2 0 90.3-13.4 127.5-38.7 36.7-25 63.5-59.5 77.5-99.5 3.6-10.4-1.9-21.8-12.3-25.5-10.4-3.6-21.8 1.9-25.5 12.3-23.2 66.6-90.4 111.4-167.2 111.4-75.4 0-142.2-43.7-166.2-108.8-3.8-10.4-15.3-15.7-25.7-11.8-10.4 3.8-15.7 15.3-11.9 25.6zM951.7 550.2c-15.4-27.9-40-46.6-69.3-52.6-0.2 0-0.3-0.1-0.5-0.1-5-35.5-14.9-70-29.7-102.7-17.2-38.1-40.5-72.8-69.3-103.3-9.5-10-25.3-10.5-35.3-1-10 9.5-10.5 25.3-1 35.3 50.6 53.7 81.8 123.6 87.9 197 1.1 13.4 12.6 23.6 26.1 22.9 4-0.2 7.9 0.1 11.8 0.9 31.9 6.5 51.2 44.1 43 83.8s-40.7 66.7-72.6 60.2c-3.5-0.7-6.9-1.8-10.2-3.3-12.2-5.6-26.6-0.5-32.6 11.4C743.8 808.7 632.2 877 508.7 877c-122.4 0-233.5-67.5-290.2-176.1-5.7-11-18.6-16.1-30.3-12.1-2 0.7-4 1.2-6 1.6-31.9 6.5-64.4-20.5-72.6-60.2-8.1-39.7 11.2-77.3 43-83.8 2.2-0.4 4.4-0.7 6.7-0.9 12.4-0.7 22.4-10.5 23.4-22.9C196.6 354.7 339.8 223 508.7 223c13.8 0 25-11.2 25-25s-11.2-25-25-25c-95.2 0-186.1 35.6-256 100.2-64.7 59.9-106 139.6-117.7 226.2-25.9 7.5-47.6 25.3-61.7 50.7-14.7 26.6-19.2 58.7-12.7 90.3 6.5 31.6 23.2 59.3 47.2 78 22.6 17.7 49.2 25.5 75.6 22.5 31.1 52.8 74.6 97.5 126.9 129.9 59.4 36.8 128 56.3 198.2 56.3 70.8 0 139.8-19.7 199.5-57.1 52.1-32.6 95.4-77.3 126.3-130.1 28.8 5.4 58.1-2.2 82.8-21.4 24-18.7 40.7-46.4 47.2-78 6.6-31.7 2.1-63.7-12.6-90.3z" /></svg>