<?xml version="1.0" standalone="no"?><!DOCTYPE svg PUBLIC "-//W3C//DTD SVG 1.1//EN" "http://www.w3.org/Graphics/SVG/1.1/DTD/svg11.dtd"><svg class="icon" width="200px" height="200.00px" viewBox="0 0 1024 1024" version="1.1" xmlns="http://www.w3.org/2000/svg"><path fill="#707070" d="M108.26752 212.18816c0-55.61344 45.0816-100.69504 100.69504-100.69504L391.424 111.49312l0-43.99616L198.74304 67.49696c-74.1376 0-134.2464 60.10368-134.2464 134.25152l0 193.9456 43.76576 0L108.2624 212.18816 108.26752 212.18816zM913.83808 212.18816l0 183.5008 45.65504 0 0-193.9456c0-74.14272-60.10368-134.25152-134.2464-134.25152l-195.61984 0 0 43.99616 183.51104 0C868.75648 111.49312 913.83808 156.57984 913.83808 212.18816L913.83808 212.18816zM108.98944 817.89952l0-183.50592-43.76576 0 0 193.95072c0 74.1376 60.10368 134.2464 134.25152 134.2464l192.67584 0 0-44.00128L209.6896 918.58944C154.07104 918.58944 108.98944 873.50784 108.98944 817.89952L108.98944 817.89952zM914.56512 817.89952c0 55.60832-45.08672 100.68992-100.69504 100.68992l-183.50592 0 0 44.00128 195.6096 0c74.14272 0 134.25152-60.10368 134.25152-134.2464l0-193.95072-45.66016 0L914.56512 817.89952 914.56512 817.89952zM964.79744 498.08384 59.20256 498.08384c-13.27104 0-24.02816 10.76224-24.02816 24.02816 0 13.27616 10.76224 24.03328 24.02816 24.03328l905.59488 0c13.27104 0 24.02816-10.76224 24.02816-24.03328C988.8256 508.84608 978.06336 498.08384 964.79744 498.08384L964.79744 498.08384z" /></svg>