<?xml version="1.0" standalone="no"?><!DOCTYPE svg PUBLIC "-//W3C//DTD SVG 1.1//EN" "http://www.w3.org/Graphics/SVG/1.1/DTD/svg11.dtd"><svg class="icon" width="200px" height="200.00px" viewBox="0 0 1024 1024" version="1.1" xmlns="http://www.w3.org/2000/svg"><path fill="#707070" d="M941.435051 801.862737 941.435051 695.650717c22.560832-32.597419 34.678824-73.414033 34.678824-118.427226 0-71.757301-29.913287-133.51076-86.589101-165.948543-16.154935-131.410935-88.667435-227.844242-178.317245-227.844242L312.82317 183.430706c-89.679485 0-162.194032 96.432283-178.413436 227.844242-56.610322 32.407084-86.524632 94.192266-86.524632 165.948543 0 45.013193 12.242835 85.829807 34.678824 118.427226l0 106.21202c0 51.609425 189.33109 51.609425 189.33109 0l0-34.314527 480.363466 0 0 34.314527C752.259504 853.471139 941.435051 853.471139 941.435051 801.862737M208.249463 639.039371c-34.143635 0-61.785182-27.625174-61.785182-61.815881 0-34.189683 27.67327-61.879326 61.785182-61.879326 34.331923 0 61.847603 27.689642 61.847603 61.879326C270.097066 611.414197 242.454496 639.039371 208.249463 639.039371M230.432695 386.80258c-12.368702 0-23.63428 1.49812-34.678824 3.171226 17.797341-86.303598 64.214511-149.839657 117.195166-149.839657L711.365118 240.134149c52.949956 0 99.272981 63.536059 117.070322 149.839657-5.806239-0.931209-12.214183-1.231037-18.429745-1.673106C810.006719 387.780861 230.432695 386.80258 230.432695 386.80258M815.811936 639.039371c-34.205033 0-61.880349-27.625174-61.880349-61.815881 0-34.189683 27.801183-61.879326 61.880349-61.879326 34.081213 0 61.784158 27.689642 61.784158 61.879326C877.756753 611.414197 849.95557 639.039371 815.811936 639.039371" /></svg>