<?xml version="1.0" standalone="no"?><!DOCTYPE svg PUBLIC "-//W3C//DTD SVG 1.1//EN" "http://www.w3.org/Graphics/SVG/1.1/DTD/svg11.dtd"><svg class="icon" width="200px" height="200.00px" viewBox="0 0 1024 1024" version="1.1" xmlns="http://www.w3.org/2000/svg"><path fill="#707070" d="M185.6 768c0 10.5984 8.6016 19.2 19.2 19.2h614.4a19.2 19.2 0 0 0 19.2-19.2v-168.0384c-38.4512-15.0528-59.7504-46.1824-59.7504-87.9616s21.2992-72.9088 59.7504-87.9616V256A19.2 19.2 0 0 0 819.2 236.8H204.8A19.2 19.2 0 0 0 185.6 256v167.7824c38.5024 14.7456 59.7504 46.08 59.7504 88.2176 0 42.1376-21.248 73.472-59.7504 88.2176V768z m655.872-167.0144a6.4 6.4 0 0 0 0.7168 0.4096l-0.768-0.4096zM819.2 851.2H204.8A83.2 83.2 0 0 1 121.6 768v-172.2368c0-24.6784 15.6672-46.592 39.0144-54.528 15.2576-5.2224 20.736-12.8512 20.736-29.2352 0-16.384-5.4784-24.064-20.736-29.2352a57.6 57.6 0 0 1-39.0144-54.528V256c0-45.9264 37.2736-83.2 83.2-83.2h614.4c45.9264 0 83.2 37.2736 83.2 83.2v172.4416c0 24.5248-15.4624 46.2848-38.5536 54.3744-15.616 5.4784-21.1968 13.2096-21.1968 29.184 0 15.9744 5.5808 23.7056 21.1968 29.184 23.04 8.0896 38.5536 29.8496 38.5536 54.3232V768c0 45.9264-37.2736 83.2-83.2 83.2z"  /><path fill="#707070" d="M409.6 441.6a32 32 0 1 1 0-64h204.8a32 32 0 1 1 0 64H409.6z m0 204.8a32 32 0 1 1 0-64h204.8a32 32 0 1 1 0 64H409.6z"  /></svg>