<?xml version="1.0" standalone="no"?><!DOCTYPE svg PUBLIC "-//W3C//DTD SVG 1.1//EN" "http://www.w3.org/Graphics/SVG/1.1/DTD/svg11.dtd"><svg class="icon" width="200px" height="200.00px" viewBox="0 0 1024 1024" version="1.1" xmlns="http://www.w3.org/2000/svg"><path fill="#707070" d="M690.8 258.7 690.8 154.4c0-3.813-1.455-7.625-4.365-10.535s-6.722-4.365-10.534-4.365L348.1 139.5c-3.812 0-7.625 1.455-10.535 4.365s-4.365 6.723-4.365 10.535l0 104.3L65 258.7l0 193.7 0 29.8L65 869.6c0 3.813 1.455 7.625 4.365 10.535S76.088 884.5 79.9 884.5l864.2 0c3.812 0 7.624-1.455 10.534-4.365S959 873.412 959 869.6L959 482.2l0-29.8L959 258.7 690.8 258.7zM363 169.3l298 0 0 89.4L363 258.7 363 169.3zM929.2 854.7 94.8 854.7 94.8 482.2l394.85 0 0 44.7 44.7 0 0-44.7L929.2 482.2 929.2 854.7zM929.2 452.4 94.8 452.4 94.8 288.5 363 288.5l298 0 268.2 0L929.2 452.4z" /></svg>